<svg width="87" height="110" fill="none" xmlns="http://www.w3.org/2000/svg"><path d="M15.642 104.324H5.898L3.882 109H.242l9.016-19.936h2.94L21.242 109H17.63l-1.988-4.676zm-1.204-2.8l-3.668-8.54-3.668 8.54h7.336zm15.12 7.7c-1.474 0-2.753-.299-3.836-.896a6.112 6.112 0 01-2.492-2.52c-.579-1.101-.868-2.389-.868-3.864s.299-2.772.896-3.892a6.525 6.525 0 012.576-2.604c1.12-.635 2.408-.952 3.864-.952 1.008 0 1.979.159 2.912.476.952.317 1.708.756 2.268 1.316l-.98 2.464a6.53 6.53 0 00-1.904-1.092 5.459 5.459 0 00-1.988-.392c-1.27 0-2.259.401-2.968 1.204-.71.784-1.064 1.923-1.064 3.416 0 1.493.346 2.632 1.036 3.416.71.784 1.708 1.176 2.996 1.176.654 0 1.316-.131 1.988-.392a7.084 7.084 0 001.904-1.12l.98 2.464c-.597.56-1.372.999-2.324 1.316a9.42 9.42 0 01-2.996.476zm12.204-11.732v6.328c0 1.661.775 2.492 2.324 2.492.43 0 .896-.075 1.4-.224v2.772c-.616.224-1.362.336-2.24.336-1.605 0-2.837-.448-3.696-1.344-.858-.896-1.288-2.184-1.288-3.864v-6.496h-2.716V94.86h2.716v-3.444l3.5-1.176v4.62h3.752v2.632h-3.752zm6.158-2.632h3.472V109H47.92V94.86zm3.668-6.412v3.444h-3.892v-3.444h3.892zm10.044 20.776c-1.437 0-2.706-.299-3.808-.896a6.25 6.25 0 01-2.52-2.548c-.578-1.12-.868-2.427-.868-3.92 0-1.493.29-2.79.868-3.892a6.209 6.209 0 012.52-2.576c1.102-.597 2.371-.896 3.808-.896 1.42 0 2.67.299 3.752.896a6.037 6.037 0 012.492 2.576c.598 1.101.896 2.399.896 3.892 0 1.493-.298 2.8-.896 3.92a6.074 6.074 0 01-2.492 2.548c-1.082.597-2.333.896-3.752.896zm-.028-2.744c1.195 0 2.1-.383 2.716-1.148.635-.784.952-1.941.952-3.472 0-1.512-.317-2.66-.952-3.444-.634-.803-1.53-1.204-2.688-1.204-1.176 0-2.08.401-2.716 1.204-.634.784-.952 1.932-.952 3.444 0 1.531.308 2.688.924 3.472.635.765 1.54 1.148 2.716 1.148zm18.279-11.984c3.378 0 5.068 1.941 5.068 5.824V109h-3.5v-8.512c0-1.12-.215-1.932-.644-2.436-.43-.523-1.092-.784-1.988-.784-1.064 0-1.923.345-2.576 1.036-.654.672-.98 1.568-.98 2.688V109H71.79V98.864c0-1.493-.075-2.828-.224-4.004h3.276l.252 2.324a5.146 5.146 0 011.96-1.988c.84-.467 1.782-.7 2.828-.7zM13.017 50.013l1.25 7.5c.053.317.226.602.483.795l9.688 7.265 1.126 3.38a1.25 1.25 0 001.392.838l.6-.1-.741 2.221a1.251 1.251 0 00-.065.396v3.75a1.25 1.25 0 001.25 1.25h30a1.25 1.25 0 001.212-1.556l-.753-2.992 7.671 4.383a1.25 1.25 0 001.66-.392s2.602-3.934 2.614-3.964c.005-.012 1.31-5.176 1.31-5.176a1.25 1.25 0 00-.654-1.421l-2.5-1.25a1.25 1.25 0 00-1.443.234s-2.728 2.787-2.788 2.952l-3.04-1.699 5.146-5.789a1.25 1.25 0 00.31-.706l1.25-12.5a1.253 1.253 0 00-.019-.37L66.02 37.28a10.397 10.397 0 00-7.674-8.048l-2.494-.624-6.965-2.321L48 24.512V22.62l.75-.562a1.25 1.25 0 00.5-1v-2.5a1.25 1.25 0 001.25-1.25v-4.804a25.56 25.56 0 001.25-7.9V3.559a1.25 1.25 0 00-1.25-1.25h-6.465a9.719 9.719 0 00-6.77 2.72l-2.029 1.014a6.306 6.306 0 000 11.281l.274.137a1.25 1.25 0 001.24 1.098v2.5a1.25 1.25 0 00.5 1l.75.562v1.892l-.905 1.811-5.586 2.235h-.818a12.05 12.05 0 00-11.886 10.069l-.735 4.404-4.796 5.995a1.252 1.252 0 00-.257.987zM29.25 72.511l1.095-3.285 4.11-.685a1.25 1.25 0 00.98-.838l.832-2.492 9.18 3.672-.987 1.481a1.25 1.25 0 00.259 1.67l3.468 2.774H29.25V72.51zm1.634-27.054l.535 4.278-2.692-1.504 2.157-2.774zm10.366-9.15a2.931 2.931 0 003.5 0A11.313 11.313 0 0049.12 29l.124.04a31.778 31.778 0 01-2.426 11.743 31.998 31.998 0 01-2.188 4.327l-.38-.076v-3.975a1.25 1.25 0 00-2.5 0v4.024l-3.605.9-4.586-2.292a1.245 1.245 0 00-.392-.12L33 42.23V30.654l3.895-1.558a11.313 11.313 0 004.355 7.212zm11.973 36.51l-1.566 1.566-4.481-3.585 1.626-2.44 1.2-.4.032-.013 4.377 2.502-.029.052-1.16 2.318zm-8.44-15.613l3.01-3.31a34.438 34.438 0 006.242-9.757l-2.237 7.828a1.252 1.252 0 00-.048.343v8.788l-6.966-3.892zm9.467-4.721l1.57-5.492.93 1.862v8.054l-2.5 3.5v-7.924zm0-21.759a31.881 31.881 0 01-8.308 21.489l-3.398 3.739-2.515-1.406 1.632-1.632a34.43 34.43 0 0010.063-23.048l2.526.843v.015zM34.127 51.248l-.597-4.778 3.911 1.956c.267.133.573.167.862.094l4.727-1.181.102.02a32 32 0 01-3.238 3.787L37.76 53.28l-3.634-2.03zm-6.953-1.021l12.357 6.905-1.321 1.982a1.25 1.25 0 102.08 1.387l1.43-2.145 1.758.981-1.518 2.277a1.25 1.25 0 102.08 1.387l1.627-2.44 4.33 2.42-1.84 2.956-.552.185a1.25 1.25 0 00-.645.492l-.095.143-10.662-4.265-3.568-3.568a1.25 1.25 0 00-.885-.366H28.6l-4.008-5.011 2.582-3.32zm27.594 24.58l.366-.365c.095-.095.174-.205.234-.325l.569-1.136.46 1.827h-1.63zm11.59-.413l-15.136-8.649.96-1.543L67.46 72.74l-1.103 1.654zm1.889-6.815l.797.398-.61 2.443-1.943-1.086 1.756-1.755zm-6.84-33.846a7.872 7.872 0 012.16 4.036l1.92 9.601-1.19 11.91-5.243 5.898-3.673-2.053 3.636-5.09a1.25 1.25 0 00.233-.727v-8.75a1.25 1.25 0 00-.132-.56l-2.368-4.735V31.409l.989.247a7.9 7.9 0 013.669 2.077zM38 16.058v-2.5h10v2.5h-2.205L43.56 14.94a1.25 1.25 0 00-1.118 0l-2.236 1.118H38zm-3.75-4.375a3.786 3.786 0 012.104-3.405l2.205-1.102c.12-.06.23-.14.325-.235a7.238 7.238 0 015.151-2.133h5.214a23.06 23.06 0 01-.918 6.25H36.75a1.25 1.25 0 00-1.25 1.25v2.197a3.785 3.785 0 01-1.25-2.822zm6.25 6.875c.194 0 .386-.046.56-.132l1.94-.97 1.941.97c.173.087.365.132.559.132h1.25v1.875l-2.5 1.875h-2.5l-2.5-1.875v-1.875h1.25zm.084 6c.216.162.479.25.75.25h3.333c.27 0 .533-.088.75-.25l.083-.063v.313c0 .194.045.385.132.559l1.11 2.218a8.791 8.791 0 01-3.492 6.723.419.419 0 01-.5 0 8.792 8.792 0 01-3.492-6.722l1.11-2.218c.087-.174.132-.366.132-.56v-.313l.084.063zm-20.358 19.78c.134-.166.222-.364.257-.574l.787-4.726a9.55 9.55 0 019.23-7.978v10.819l-4.337 5.576a1.24 1.24 0 00-.625.805l-3.524 4.53a1.25 1.25 0 00.01 1.549l5 6.25a1.25 1.25 0 00.976.469h3.232l2.838 2.837-.768 2.303-5.704.951-.912-2.737a1.25 1.25 0 00-.436-.604l-9.6-7.2-1.075-6.455 4.651-5.814z" fill="#fff"/></svg>