<svg width="182" height="116" fill="none" xmlns="http://www.w3.org/2000/svg"><path d="M2.648 89.064h7.336c3.267 0 5.796.868 7.588 2.604 1.81 1.736 2.716 4.181 2.716 7.336 0 3.173-.905 5.637-2.716 7.392C15.78 108.132 13.251 109 9.984 109H2.648V89.064zM9.76 106.06c4.592 0 6.888-2.352 6.888-7.056 0-4.667-2.296-7-6.888-7h-3.5v14.056h3.5zm20.376 3.164c-1.437 0-2.706-.299-3.808-.896a6.25 6.25 0 01-2.52-2.548c-.578-1.12-.868-2.427-.868-3.92 0-1.493.29-2.79.868-3.892a6.209 6.209 0 012.52-2.576c1.102-.597 2.371-.896 3.808-.896 1.419 0 2.67.299 3.752.896a6.037 6.037 0 012.492 2.576c.598 1.101.896 2.399.896 3.892 0 1.493-.298 2.8-.896 3.92a6.074 6.074 0 01-2.492 2.548c-1.082.597-2.333.896-3.752.896zm-.028-2.744c1.195 0 2.1-.383 2.716-1.148.635-.784.952-1.941.952-3.472 0-1.512-.317-2.66-.952-3.444-.634-.803-1.53-1.204-2.688-1.204-1.176 0-2.081.401-2.716 1.204-.634.784-.952 1.932-.952 3.444 0 1.531.308 2.688.924 3.472.635.765 1.54 1.148 2.716 1.148zm16.599 2.744c-1.475 0-2.754-.299-3.836-.896a6.112 6.112 0 01-2.492-2.52c-.579-1.101-.868-2.389-.868-3.864s.298-2.772.896-3.892a6.525 6.525 0 012.576-2.604c1.12-.635 2.408-.952 3.864-.952 1.008 0 1.978.159 2.912.476.952.317 1.708.756 2.268 1.316l-.98 2.464a6.53 6.53 0 00-1.904-1.092 5.458 5.458 0 00-1.988-.392c-1.27 0-2.259.401-2.968 1.204-.71.784-1.064 1.923-1.064 3.416 0 1.493.345 2.632 1.036 3.416.709.784 1.708 1.176 2.996 1.176.653 0 1.316-.131 1.988-.392a7.084 7.084 0 001.904-1.12l.98 2.464c-.598.56-1.372.999-2.324 1.316a9.42 9.42 0 01-2.996.476zm20.55-14.364V109H63.84v-2.184c-.448.784-1.046 1.381-1.792 1.792-.747.411-1.606.616-2.576.616-3.454 0-5.18-1.941-5.18-5.824v-8.54h3.472v8.568c0 1.027.205 1.783.616 2.268.429.485 1.082.728 1.96.728 1.026 0 1.848-.336 2.464-1.008.616-.672.924-1.568.924-2.688V94.86h3.528zm20.487-.364c1.606 0 2.8.485 3.584 1.456.784.952 1.176 2.408 1.176 4.368V109h-3.5v-8.568c0-1.12-.186-1.923-.56-2.408-.354-.504-.952-.756-1.792-.756-.97 0-1.736.345-2.296 1.036-.541.672-.812 1.605-.812 2.8V109h-3.5v-8.568c0-1.101-.196-1.904-.588-2.408-.373-.504-.97-.756-1.792-.756-.97 0-1.736.345-2.296 1.036-.56.672-.84 1.605-.84 2.8V109h-3.472V98.864c0-1.493-.074-2.828-.224-4.004h3.276l.252 2.24c.411-.84.999-1.484 1.764-1.932.784-.448 1.68-.672 2.688-.672 2.166 0 3.575.896 4.228 2.688a4.814 4.814 0 011.904-1.96c.84-.485 1.774-.728 2.8-.728zm20.872 7.616h-9.744c.075 1.512.448 2.632 1.12 3.36.691.709 1.708 1.064 3.052 1.064 1.549 0 2.987-.504 4.312-1.512l1.008 2.408c-.672.541-1.503.98-2.492 1.316a9.505 9.505 0 01-2.968.476c-2.315 0-4.135-.653-5.46-1.96-1.325-1.307-1.988-3.099-1.988-5.376 0-1.437.29-2.716.868-3.836.579-1.12 1.39-1.988 2.436-2.604 1.045-.635 2.231-.952 3.556-.952 1.941 0 3.472.635 4.592 1.904 1.139 1.25 1.708 2.977 1.708 5.18v.532zm-6.216-5.096c-.933 0-1.699.28-2.296.84-.579.541-.952 1.335-1.12 2.38h6.58c-.112-1.064-.439-1.867-.98-2.408-.523-.541-1.251-.812-2.184-.812zm17.272-2.52c3.378 0 5.068 1.941 5.068 5.824V109h-3.5v-8.512c0-1.12-.215-1.932-.644-2.436-.43-.523-1.092-.784-1.988-.784-1.064 0-1.923.345-2.576 1.036-.654.672-.98 1.568-.98 2.688V109h-3.472V98.864c0-1.493-.075-2.828-.224-4.004h3.276l.252 2.324a5.139 5.139 0 011.96-1.988c.84-.467 1.782-.7 2.828-.7zm13.231 2.996v6.328c0 1.661.775 2.492 2.324 2.492.429 0 .896-.075 1.4-.224v2.772c-.616.224-1.363.336-2.24.336-1.605 0-2.837-.448-3.696-1.344-.859-.896-1.288-2.184-1.288-3.864v-6.496h-2.716V94.86h2.716v-3.444l3.5-1.176v4.62h3.752v2.632h-3.752zm19.681-2.632V109h-3.444v-2.268a4.629 4.629 0 01-1.848 1.848c-.802.429-1.717.644-2.744.644-1.232 0-2.324-.299-3.276-.896s-1.689-1.447-2.212-2.548c-.522-1.101-.784-2.38-.784-3.836s.262-2.744.784-3.864c.542-1.139 1.288-2.016 2.24-2.632.952-.635 2.035-.952 3.248-.952 1.027 0 1.942.224 2.744.672a4.45 4.45 0 011.848 1.82V94.86h3.444zm-7.084 11.62c1.158 0 2.054-.401 2.688-1.204.635-.803.952-1.932.952-3.388 0-1.493-.317-2.641-.952-3.444-.634-.803-1.54-1.204-2.716-1.204-1.157 0-2.062.42-2.716 1.26-.634.821-.952 1.969-.952 3.444 0 1.456.318 2.576.952 3.36.654.784 1.568 1.176 2.744 1.176zm18.512-11.956c.542 0 1.008.075 1.4.224l-.028 3.192a4.863 4.863 0 00-1.848-.364c-1.194 0-2.109.345-2.744 1.036-.616.69-.924 1.605-.924 2.744V109h-3.472V98.864c0-1.493-.074-2.828-.224-4.004h3.276l.28 2.492c.355-.915.915-1.615 1.68-2.1.766-.485 1.634-.728 2.604-.728zm17.581.336l-6.58 15.092c-.747 1.755-1.699 3.033-2.856 3.836-1.158.803-2.586 1.335-4.284 1.596l-.784-2.688c1.325-.299 2.314-.681 2.968-1.148.672-.448 1.213-1.12 1.624-2.016l.448-1.036-5.88-13.636h3.668l4.06 10.164 4.144-10.164h3.472zM73.622 54.417h2.267a.937.937 0 100-1.875h-2.267a.937.937 0 100 1.875zm10.736 2.373h2.9a.937.937 0 100-1.874h-2.9a.938.938 0 000 1.875zm16.431 4.904h2.425a.937.937 0 100-1.875h-2.425a.937.937 0 100 1.875zm-24.941-.463a.938.938 0 00.938.938h2.267a.938.938 0 000-1.875h-2.267a.938.938 0 00-.938.937zm38.24 2.057a.936.936 0 00.937.937h2.742a.937.937 0 100-1.875h-2.742a.937.937 0 00-.937.938zm-49.904-.938h-2.742a.938.938 0 000 1.875h2.742a.938.938 0 000-1.875zm30.139-7.642h2.268a.938.938 0 000-1.875h-2.267a.937.937 0 100 1.875zm-7.651-13.016h6.656a.937.937 0 00.938-.937V36.28a4.266 4.266 0 10-8.532 0v4.475a.937.937 0 00.938.937zm.937-5.412a2.39 2.39 0 114.782 0v3.537h-4.782V36.28zm-4.932-6.388a.938.938 0 00-.938.938v.72a.938.938 0 001.875 0v-.72a.937.937 0 00-.937-.938zm0 3.56a.938.938 0 00-.938.937v5.86a.938.938 0 001.875 0v-5.86a.937.937 0 00-.937-.938zm32.864 15.282a.937.937 0 00-.938-.937h-2.583a.94.94 0 00-.663 1.6.939.939 0 00.663.275h2.583a.937.937 0 00.938-.938zM69.63 42.697a.938.938 0 00-.938-.938h-2.584a.938.938 0 000 1.875h2.584a.938.938 0 00.938-.937z" fill="#fff"/><path d="M122.553 72.333V39.4a2.517 2.517 0 002.452-2.516v-8.54a.937.937 0 00-.938-.938h-3.539a.937.937 0 00-.937.938v1.91h-1.911v-1.91a.937.937 0 00-.938-.938h-3.539a.937.937 0 00-.937.938v1.91h-1.911v-1.91a.937.937 0 00-.938-.938h-3.539a.937.937 0 00-.937.938v8.54a2.52 2.52 0 002.451 2.516v5.405h-3.883a.94.94 0 00-.937.937v1.91h-.82V27.62h1.589a.939.939 0 00.687-1.574l-13.09-14.134V9.65l6.475-2.818a.937.937 0 00.025-1.709l-6.614-3.106a.938.938 0 00-1.761.447v9.448L75.972 26.046a.939.939 0 00.687 1.574h1.59v20.031h-.821v-1.909a.938.938 0 00-.938-.937h-3.882V39.4a2.52 2.52 0 002.451-2.516v-8.54a.938.938 0 00-.937-.938h-3.54a.938.938 0 00-.937.938v1.91h-1.91v-1.91a.938.938 0 00-.938-.938h-3.54a.938.938 0 00-.937.938v1.91h-1.91v-1.91a.938.938 0 00-.938-.938h-3.54a.938.938 0 00-.937.938v8.54a2.52 2.52 0 002.452 2.516v32.933a4.541 4.541 0 00-4.35 4.531v.672a.937.937 0 00.937.937h71.932a.94.94 0 00.937-.937v-.672a4.541 4.541 0 00-4.35-4.531zM90.938 4.142l3.826 1.797-3.826 1.666V4.142zm15.878 32.742v-7.603h1.664v1.91a.936.936 0 00.937.937h3.786a.937.937 0 00.938-.937v-1.91h1.664v1.91a.936.936 0 00.937.937h3.786a.937.937 0 00.938-.937v-1.91h1.664v7.603a.643.643 0 01-.644.644h-15.027a.647.647 0 01-.643-.644zM90 13.66l11.194 12.086h-15.1a.937.937 0 100 1.875h13.782v20.031h-.646v-1.909a.938.938 0 00-.938-.937h-5.84a.938.938 0 00-.938.937v1.91h-3.028v-1.91a.938.938 0 00-.938-.937h-5.84a.938.938 0 00-.938.937v1.91h-.647V27.62h2.533a.937.937 0 100-1.875h-3.85L90 13.66zM75.553 46.68v1.91a.937.937 0 00.938.938h5.217a.938.938 0 00.937-.938v-1.91h3.966v1.91a.937.937 0 00.937.938h4.903a.938.938 0 00.938-.938v-1.91h3.966v1.91a.937.937 0 00.937.938h5.217a.937.937 0 00.938-.938v-1.91h3.656v4.915h-1.778a.937.937 0 100 1.875h1.778v7.71a.937.937 0 001.875 0v-4.073h2.411a.937.937 0 100-1.875h-2.411v-9.489a.935.935 0 00-.711-.909v-5.43h11.411v1.592h-2.48a.935.935 0 00-.937.938.937.937 0 00.937.937h2.48v26.914h-2.331a.937.937 0 100 1.875h2.331v.67h-10.7v-7.876a.94.94 0 00-.937-.937.937.937 0 00-.938.937v3.433h-1.936a.94.94 0 00-.663 1.6.94.94 0 00.663.275h1.936v2.567H96.236v-4.492h3.986a.937.937 0 100-1.875H96.23a5.388 5.388 0 00-2.609-4.422l-3.14-1.875a.938.938 0 00-.962 0l-3.14 1.875a5.39 5.39 0 00-2.615 4.608v3.004h-2.551a.937.937 0 100 1.876h2.551v1.301H71.897v-5.731h1.778a.937.937 0 100-1.875h-1.778V46.68h3.656zm18.808 19.468v6.181h-8.722v-6.181a3.506 3.506 0 011.701-2.998L90 61.56l2.66 1.588a3.506 3.506 0 011.7 2.998zM56.87 36.884v-7.603h1.663v1.91a.937.937 0 00.938.937h3.786a.938.938 0 00.937-.937v-1.91h1.664v1.91a.937.937 0 00.938.937h3.786a.938.938 0 00.937-.937v-1.91h1.664v7.603a.645.645 0 01-.643.644H57.514a.645.645 0 01-.644-.644zm11.373 20.38h1.778v8.177a.907.907 0 000 .436v3.275H67.61a.938.938 0 000 1.874h2.41v1.302h-10.7V50.147h2.474a.937.937 0 100-1.875h-2.473v-8.869h11.41v5.43a.937.937 0 00-.71.91v9.646h-1.778a.938.938 0 000 1.875zm-13.26 19.334a2.664 2.664 0 012.649-2.395h64.734a2.664 2.664 0 012.649 2.395H54.984z" fill="#fff"/></svg>