<svg width="109" height="121" fill="none" xmlns="http://www.w3.org/2000/svg"><path d="M11.436 114.252c-1.96 0-3.677-.42-5.152-1.26-1.456-.84-2.576-2.025-3.36-3.556-.784-1.549-1.176-3.36-1.176-5.432 0-2.053.392-3.845 1.176-5.376.784-1.55 1.904-2.735 3.36-3.556 1.475-.84 3.192-1.26 5.152-1.26 1.344 0 2.604.215 3.78.644 1.195.41 2.184.99 2.968 1.736l-1.176 2.632c-.896-.728-1.792-1.25-2.688-1.568a7.84 7.84 0 00-2.828-.504c-1.922 0-3.416.625-4.48 1.876-1.045 1.25-1.568 3.043-1.568 5.376 0 2.352.523 4.163 1.568 5.432 1.046 1.251 2.539 1.876 4.48 1.876a8.26 8.26 0 002.828-.476c.896-.336 1.792-.868 2.688-1.596l1.176 2.632c-.784.747-1.773 1.335-2.968 1.764-1.176.411-2.436.616-3.78.616zm16.01-.028c-1.437 0-2.706-.299-3.807-.896a6.25 6.25 0 01-2.52-2.548c-.579-1.12-.868-2.427-.868-3.92 0-1.493.29-2.791.868-3.892.597-1.12 1.437-1.979 2.52-2.576 1.101-.597 2.37-.896 3.808-.896 1.419 0 2.67.299 3.752.896a6.036 6.036 0 012.492 2.576c.597 1.101.896 2.399.896 3.892 0 1.493-.299 2.8-.896 3.92a6.075 6.075 0 01-2.492 2.548c-1.083.597-2.334.896-3.752.896zm-.027-2.744c1.194 0 2.1-.383 2.716-1.148.634-.784.952-1.941.952-3.472 0-1.512-.317-2.66-.952-3.444-.635-.803-1.53-1.204-2.688-1.204-1.176 0-2.081.401-2.716 1.204-.635.784-.952 1.932-.952 3.444 0 1.531.308 2.688.924 3.472.634.765 1.54 1.148 2.716 1.148zm26.874-11.984c1.605 0 2.8.485 3.584 1.456.784.952 1.176 2.408 1.176 4.368V114h-3.5v-8.568c0-1.12-.186-1.923-.56-2.408-.355-.504-.952-.756-1.792-.756-.97 0-1.736.345-2.296 1.036-.541.672-.812 1.605-.812 2.8V114h-3.5v-8.568c0-1.101-.196-1.904-.588-2.408-.373-.504-.97-.756-1.792-.756-.97 0-1.736.345-2.296 1.036-.56.672-.84 1.605-.84 2.8V114h-3.472v-10.136c0-1.493-.074-2.828-.224-4.004h3.276l.252 2.24c.41-.84.999-1.484 1.764-1.932.784-.448 1.68-.672 2.688-.672 2.166 0 3.575.896 4.228 2.688a4.815 4.815 0 011.904-1.96c.84-.485 1.773-.728 2.8-.728zm20.872 7.616H65.42c.074 1.512.448 2.632 1.12 3.36.69.709 1.708 1.064 3.052 1.064 1.55 0 2.986-.504 4.312-1.512l1.008 2.408c-.672.541-1.503.98-2.492 1.316a9.5 9.5 0 01-2.968.476c-2.315 0-4.135-.653-5.46-1.96-1.326-1.307-1.988-3.099-1.988-5.376 0-1.437.29-2.716.868-3.836.578-1.12 1.39-1.988 2.436-2.604 1.045-.635 2.23-.952 3.556-.952 1.941 0 3.472.635 4.592 1.904 1.138 1.251 1.708 2.977 1.708 5.18v.532zm-6.216-5.096c-.934 0-1.699.28-2.296.84-.579.541-.952 1.335-1.12 2.38h6.58c-.112-1.064-.439-1.867-.98-2.408-.523-.541-1.25-.812-2.184-.812zm22.704-8.624V114h-3.444v-2.268a4.633 4.633 0 01-1.848 1.848c-.803.429-1.718.644-2.744.644-1.214 0-2.296-.308-3.248-.924-.952-.616-1.7-1.484-2.24-2.604-.523-1.139-.784-2.436-.784-3.892s.26-2.735.784-3.836c.522-1.101 1.26-1.951 2.212-2.548.952-.616 2.044-.924 3.276-.924 1.008 0 1.904.215 2.688.644a4.33 4.33 0 011.848 1.764v-8.512h3.5zM84.54 111.48c1.157 0 2.053-.401 2.688-1.204.653-.803.98-1.941.98-3.416 0-1.475-.318-2.613-.952-3.416-.635-.803-1.531-1.204-2.688-1.204-1.176 0-2.091.401-2.744 1.204-.635.784-.952 1.904-.952 3.36 0 1.475.317 2.623.952 3.444.653.821 1.558 1.232 2.716 1.232zm24.308-11.62l-6.58 15.092c-.747 1.755-1.699 3.033-2.857 3.836-1.157.803-2.585 1.335-4.284 1.596l-.784-2.688c1.326-.299 2.315-.681 2.969-1.148.671-.448 1.213-1.12 1.623-2.016l.448-1.036-5.88-13.636h3.668l4.061 10.164 4.144-10.164h3.472zM70.812 49.14a1.739 1.739 0 00-2.456.135C64.73 53.329 59.497 55.652 54 55.652c-5.496 0-10.729-2.323-14.357-6.377a1.739 1.739 0 10-2.59 2.32C41.338 56.385 47.516 59.13 54 59.13c6.485 0 12.663-2.747 16.948-7.535a1.74 1.74 0 00-.136-2.456z" fill="#fff"/><path d="M54 0C31.944 0 14 17.944 14 40s17.944 40 40 40 40-17.944 40-40S76.056 0 54 0zm0 76.522c-20.14 0-36.522-16.383-36.522-36.522C17.478 19.86 33.861 3.478 54 3.478c20.14 0 36.522 16.383 36.522 36.522 0 20.14-16.383 36.522-36.522 36.522z" fill="#fff"/><path d="M67.913 27.826c-4.795 0-8.696 3.901-8.696 8.696a1.74 1.74 0 003.479 0 5.224 5.224 0 015.217-5.218 5.224 5.224 0 015.217 5.218 1.74 1.74 0 003.479 0c0-4.795-3.901-8.696-8.696-8.696zm-22.609 8.696a1.74 1.74 0 003.479 0c0-4.795-3.901-8.696-8.696-8.696s-8.696 3.901-8.696 8.696a1.74 1.74 0 003.479 0 5.224 5.224 0 015.217-5.218 5.224 5.224 0 015.217 5.218z" fill="#fff"/></svg>