<svg width="92" height="110" fill="none" xmlns="http://www.w3.org/2000/svg"><path d="M2.219 89.064h7.336c3.266 0 5.796.868 7.587 2.604 1.811 1.736 2.716 4.181 2.716 7.336 0 3.173-.905 5.637-2.716 7.392-1.791 1.736-4.32 2.604-7.587 2.604H2.219V89.064zM9.33 106.06c4.591 0 6.887-2.352 6.887-7.056 0-4.667-2.296-7-6.887-7h-3.5v14.056h3.5zm21.58-11.536c.541 0 1.008.075 1.4.224l-.028 3.192a4.866 4.866 0 00-1.848-.364c-1.195 0-2.11.345-2.744 1.036-.616.69-.924 1.605-.924 2.744V109h-3.472V98.864c0-1.493-.075-2.828-.224-4.004h3.276l.28 2.492c.354-.915.914-1.615 1.68-2.1.765-.485 1.633-.728 2.604-.728zm16.599.336V109h-3.444v-2.268a4.633 4.633 0 01-1.848 1.848c-.803.429-1.717.644-2.744.644-1.232 0-2.324-.299-3.276-.896s-1.69-1.447-2.212-2.548c-.523-1.101-.784-2.38-.784-3.836s.261-2.744.784-3.864c.541-1.139 1.288-2.016 2.24-2.632.952-.635 2.035-.952 3.248-.952 1.027 0 1.941.224 2.744.672a4.453 4.453 0 011.848 1.82V94.86h3.444zm-7.084 11.62c1.157 0 2.053-.401 2.688-1.204.635-.803.952-1.932.952-3.388 0-1.493-.317-2.641-.952-3.444-.635-.803-1.54-1.204-2.716-1.204-1.157 0-2.063.42-2.716 1.26-.635.821-.952 1.969-.952 3.444 0 1.456.317 2.576.952 3.36.653.784 1.568 1.176 2.744 1.176zM68.01 94.496c1.605 0 2.8.485 3.584 1.456.784.952 1.176 2.408 1.176 4.368V109h-3.5v-8.568c0-1.12-.187-1.923-.56-2.408-.355-.504-.952-.756-1.792-.756-.97 0-1.736.345-2.296 1.036-.541.672-.812 1.605-.812 2.8V109h-3.5v-8.568c0-1.101-.196-1.904-.588-2.408-.373-.504-.97-.756-1.792-.756-.97 0-1.736.345-2.296 1.036-.56.672-.84 1.605-.84 2.8V109h-3.472V98.864c0-1.493-.075-2.828-.224-4.004h3.276l.252 2.24c.41-.84.999-1.484 1.764-1.932.784-.448 1.68-.672 2.688-.672 2.165 0 3.575.896 4.228 2.688a4.813 4.813 0 011.904-1.96c.84-.485 1.773-.728 2.8-.728zm22.02.364V109h-3.444v-2.268a4.634 4.634 0 01-1.848 1.848c-.803.429-1.718.644-2.744.644-1.232 0-2.324-.299-3.276-.896s-1.69-1.447-2.212-2.548c-.523-1.101-.784-2.38-.784-3.836s.26-2.744.784-3.864c.54-1.139 1.288-2.016 2.24-2.632.952-.635 2.034-.952 3.248-.952 1.026 0 1.94.224 2.744.672a4.454 4.454 0 011.848 1.82V94.86h3.444zm-7.084 11.62c1.157 0 2.053-.401 2.688-1.204.634-.803.952-1.932.952-3.388 0-1.493-.318-2.641-.952-3.444-.635-.803-1.54-1.204-2.716-1.204-1.158 0-2.063.42-2.716 1.26-.635.821-.952 1.969-.952 3.444 0 1.456.317 2.576.952 3.36.653.784 1.568 1.176 2.744 1.176z" fill="#fff"/><g clip-path="url(#clip0)" fill="#fff"><path d="M80.928 3.13l-1.29-.322a90.07 90.07 0 00-43.53 0l-1.288.322a6.689 6.689 0 00-5.073 6.497v9.326a90.14 90.14 0 00-19.131 7.888l-1.17.644a6.673 6.673 0 00-3.214 7.584l3.898 14.575a41.546 41.546 0 0025.912 28.26l4.018 1.474a12.116 12.116 0 0013.36-3.588l2.744-3.277a40.764 40.764 0 006.223-10.078c.844-.328 1.65-.752 2.399-1.262l3.503-2.452A41.56 41.56 0 0086 24.704V9.627a6.69 6.69 0 00-5.072-6.497zM54.114 70.79l-2.744 3.28a9.425 9.425 0 01-10.394 2.79l-4.018-1.473a38.87 38.87 0 01-24.24-26.438l-3.9-14.575a4 4 0 011.927-4.543l1.168-.645a87.475 87.475 0 0117.834-7.447v2.964a41.552 41.552 0 0014.246 31.289 25.318 25.318 0 01-7.377 1.771l-10.072.817a1.34 1.34 0 00-.443 2.557l13.352 6.028a6.696 6.696 0 008.204-2.194l2.922-4.065.382.267a12.048 12.048 0 006.913 2.17c.401 0 .79-.05 1.185-.09a38.235 38.235 0 01-4.945 7.537zM46.355 57.9c.366.268.722.557 1.098.82l.927.648-2.903 4.04a4.019 4.019 0 01-4.923 1.313l-8.622-3.884 4.9-.401a28.047 28.047 0 009.523-2.536zm36.967-33.197a38.876 38.876 0 01-16.567 31.822l-3.503 2.452a9.407 9.407 0 01-10.756 0l-3.502-2.452a38.875 38.875 0 01-16.569-31.822V9.627A4.018 4.018 0 0135.47 5.73l1.29-.322a87.36 87.36 0 0142.23 0l1.29.322a4.018 4.018 0 013.043 3.898v15.077z"/><path d="M52.908 25.143l1.827-1.961c-4.188-4.178-10.967-4.178-15.154 0l-.067.067 1.96 1.827a8.037 8.037 0 0111.434.067zm8.102-1.961l-.066.067 1.96 1.827a8.037 8.037 0 0111.434.067l1.827-1.961c-4.188-4.178-10.967-4.178-15.154 0zM25.098 44.554a8.036 8.036 0 016.19.855l1.248-2.372c-5.125-2.96-11.678-1.204-14.637 3.92l-.047.082 1.159.67 1.205.586a7.977 7.977 0 014.882-3.74zm47.268-6.944l-9.94 1.81a25.43 25.43 0 01-9.107 0l-9.941-1.81a1.339 1.339 0 00-1.088 2.355l11.342 9.277a6.717 6.717 0 008.482 0l11.34-9.28a1.339 1.339 0 00-1.088-2.354v.003zm-11.948 9.561a4.027 4.027 0 01-5.09 0l-7.332-5.998 4.844.88c3.327.609 6.736.609 10.062 0l4.845-.88-7.33 5.998z"/></g><defs><clipPath id="clip0"><path fill="#fff" transform="translate(6)" d="M0 0h80v80H0z"/></clipPath></defs></svg>