<svg width="128" height="114" fill="none" xmlns="http://www.w3.org/2000/svg"><path d="M19.997 93.064V113h-3.584v-8.652H6.193V113H2.635V93.064h3.556v8.344h10.22v-8.344h3.585zm4.071 5.796h3.472V113h-3.472V98.86zm3.668-6.412v3.444h-3.892v-3.444h3.892zm8.813 20.776c-2.557 0-4.592-.597-6.104-1.792l.98-2.464c1.512 1.12 3.238 1.68 5.18 1.68.84 0 1.484-.14 1.932-.42.467-.28.7-.672.7-1.176 0-.429-.159-.765-.476-1.008-.318-.261-.859-.485-1.624-.672l-2.352-.532c-2.576-.56-3.864-1.876-3.864-3.948 0-.859.242-1.615.728-2.268.485-.672 1.166-1.195 2.044-1.568.877-.373 1.895-.56 3.052-.56 1.008 0 1.979.159 2.912.476a7.442 7.442 0 012.464 1.316l-1.036 2.38c-1.419-1.045-2.875-1.568-4.368-1.568-.803 0-1.428.149-1.876.448-.448.299-.672.709-.672 1.232 0 .411.13.737.392.98.28.243.746.448 1.4.616l2.408.532c1.4.317 2.417.812 3.052 1.484.653.653.98 1.512.98 2.576 0 1.307-.523 2.343-1.568 3.108-1.045.765-2.474 1.148-4.284 1.148zm13.163-11.732v6.328c0 1.661.774 2.492 2.323 2.492.43 0 .897-.075 1.4-.224v2.772c-.616.224-1.362.336-2.24.336-1.605 0-2.837-.448-3.696-1.344-.858-.896-1.288-2.184-1.288-3.864v-6.496h-2.715V98.86h2.715v-3.444l3.5-1.176v4.62h3.753v2.632h-3.752zm12.569 11.732c-1.438 0-2.707-.299-3.808-.896a6.252 6.252 0 01-2.52-2.548c-.579-1.12-.868-2.427-.868-3.92 0-1.493.29-2.791.868-3.892a6.21 6.21 0 012.52-2.576c1.101-.597 2.37-.896 3.808-.896 1.419 0 2.67.299 3.752.896a6.036 6.036 0 012.492 2.576c.597 1.101.896 2.399.896 3.892 0 1.493-.299 2.8-.896 3.92a6.074 6.074 0 01-2.492 2.548c-1.083.597-2.334.896-3.752.896zm-.028-2.744c1.194 0 2.1-.383 2.716-1.148.635-.784.952-1.941.952-3.472 0-1.512-.318-2.66-.952-3.444-.635-.803-1.53-1.204-2.688-1.204-1.176 0-2.081.401-2.716 1.204-.635.784-.952 1.932-.952 3.444 0 1.531.308 2.688.924 3.472.635.765 1.54 1.148 2.716 1.148zm17.802-11.956c.541 0 1.008.075 1.4.224l-.028 3.192a4.86 4.86 0 00-1.848-.364c-1.194 0-2.11.345-2.744 1.036-.616.691-.924 1.605-.924 2.744V113H72.44v-10.136c0-1.493-.074-2.828-.224-4.004h3.276l.28 2.492c.355-.915.915-1.615 1.68-2.1.766-.485 1.634-.728 2.604-.728zm3.349.336h3.472V113h-3.472V98.86zm3.668-6.412v3.444H83.18v-3.444h3.892zm10.045 20.776c-1.475 0-2.754-.299-3.836-.896a6.111 6.111 0 01-2.492-2.52c-.579-1.101-.868-2.389-.868-3.864s.298-2.772.896-3.892a6.524 6.524 0 012.576-2.604c1.12-.635 2.408-.952 3.864-.952 1.008 0 1.978.159 2.912.476.952.317 1.708.756 2.268 1.316l-.98 2.464a6.55 6.55 0 00-1.904-1.092 5.465 5.465 0 00-1.988-.392c-1.27 0-2.259.401-2.968 1.204-.71.784-1.064 1.923-1.064 3.416 0 1.493.345 2.632 1.036 3.416.71.784 1.708 1.176 2.996 1.176.653 0 1.316-.131 1.988-.392a7.093 7.093 0 001.904-1.12l.98 2.464c-.598.56-1.372.999-2.324 1.316a9.423 9.423 0 01-2.996.476zM118.31 98.86V113h-3.444v-2.268a4.641 4.641 0 01-1.848 1.848c-.803.429-1.718.644-2.744.644-1.232 0-2.324-.299-3.276-.896s-1.69-1.447-2.212-2.548c-.523-1.101-.784-2.38-.784-3.836s.261-2.744.784-3.864c.541-1.139 1.288-2.016 2.24-2.632.952-.635 2.034-.952 3.248-.952 1.026 0 1.941.224 2.744.672a4.461 4.461 0 011.848 1.82V98.86h3.444zm-7.084 11.62c1.157 0 2.053-.401 2.688-1.204.634-.803.952-1.932.952-3.388 0-1.493-.318-2.641-.952-3.444-.635-.803-1.54-1.204-2.716-1.204-1.158 0-2.063.42-2.716 1.26-.635.821-.952 1.969-.952 3.444 0 1.456.317 2.576.952 3.36.653.784 1.568 1.176 2.744 1.176zm10.896-18.088h3.472V113h-3.472V92.392z" fill="#fff"/><g clip-path="url(#clip0)" fill="#fff"><path d="M67.727 69.165c1.01-1.093 1.443-2.434 1.443-3.915 0-1.487-.425-2.836-1.443-3.929-.992-1.065-2.245-1.557-3.689-1.557-1.447 0-2.714.478-3.714 1.54-1.023 1.088-1.444 2.433-1.444 3.92 0 1.495.42 2.857 1.448 3.954.996 1.066 2.25 1.557 3.697 1.557 1.452 0 2.71-.495 3.702-1.57zM62.404 67.4c-.482-.615-.628-1.398-.628-2.164 0-.76.159-1.513.646-2.11.416-.513.943-.77 1.603-.77.664 0 1.204.244 1.616.77.483.61.633 1.376.633 2.137 0 .761-.16 1.522-.637 2.128-.416.526-.948.778-1.612.778-.669 0-1.204-.243-1.62-.77zm-5.069-7.459h-5.198a1.22 1.22 0 00-.908.394 1.284 1.284 0 00-.367.907c0 .367.128.686.39.942.243.23.535.367.872.367h1.213v6.707c0 .384.142.72.411.99l.005.01.009.004c.283.252.62.407 1 .407.377 0 .705-.15.966-.42.265-.275.407-.607.407-.991v-6.693h1.2c.35 0 .66-.128.907-.381.248-.252.381-.562.381-.916 0-.358-.128-.677-.376-.933a1.235 1.235 0 00-.912-.394zm-10.069 7.826c-.225.172-.5.234-.783.234-.438 0-.948-.154-1.355-.305-.288-.101-.775-.278-1.076-.278-.354 0-.664.132-.899.397a1.38 1.38 0 00-.35.956v.07c0 .682.536 1.11 1.099 1.38.761.364 1.638.474 2.47.474 1.08 0 2.13-.261 2.958-.995.775-.69 1.138-1.575 1.138-2.614 0-1.098-.425-1.991-1.364-2.566-.58-.372-1.373-.62-2.032-.81a8.235 8.235 0 01-.788-.248 1.63 1.63 0 01-.337-.15c-.084-.071-.181-.168-.181-.288 0-.168.084-.283.212-.38.186-.137.403-.19.629-.19.216 0 .496.07.703.128l.395.137c.243.08.567.182.823.182.359 0 .664-.142.903-.407.24-.261.36-.58.36-.934 0-.615-.421-1.035-.931-1.313-.633-.341-1.364-.456-2.072-.456-1.04 0-2.01.274-2.811.955-.753.65-1.134 1.487-1.134 2.486 0 .951.35 1.744 1.151 2.265.24.16.532.284.802.39.394.15.801.278 1.209.398.376.11.819.238 1.177.402.098.045.23.12.288.217a.68.68 0 01.075.323c0 .23-.092.398-.279.54zm35.527 2.486c.275.265.603.416.983.416.39 0 .73-.15.996-.438a1.43 1.43 0 00.403-1v-3.583l2.6-3.557c.185-.252.273-.54.273-.85 0-.389-.15-.725-.433-.99a1.382 1.382 0 00-.979-.407c-.482 0-.872.212-1.142.61l-1.718 2.464-1.704-2.464a1.309 1.309 0 00-1.143-.61 1.4 1.4 0 00-1.027.42 1.354 1.354 0 00-.416.977c0 .315.12.602.305.85l2.573 3.557v3.583c0 .398.142.748.43 1.022zm-4.211-6.897c0-.973-.34-1.809-1.07-2.46-.744-.663-1.661-.937-2.653-.937h-2.568c-.394 0-.74.137-1.014.416a1.415 1.415 0 00-.416 1.035v7.82c0 .395.137.74.416 1.018l.005.01.004.004c.288.252.62.407 1.005.407.376 0 .713-.132.983-.403.27-.274.403-.61.403-.995v-2.26l2.502 3.078c.283.35.646.58 1.102.58.38 0 .721-.137 1.005-.398l.009-.005.004-.008c.257-.284.408-.616.408-1 0-.35-.129-.655-.363-.916l-1.886-2.075c.318-.088.642-.207.894-.38.868-.598 1.23-1.491 1.23-2.53zm-3.068.668a.892.892 0 01-.642.261H73.69v-1.703h1.156c.252 0 .478.066.66.252l.004.005.009.004a.732.732 0 01.265.57.814.814 0 01-.27.611zm-41.578 6.247c.27.274.606.411.991.411.39 0 .726-.145.997-.429a1.39 1.39 0 00.403-.982v-8.003a1.42 1.42 0 00-.413-1.021 1.358 1.358 0 00-.986-.416c-.386 0-.718.163-.984.442-.26.279-.416.61-.416.995v2.557h-3.67v-2.557c0-.39-.137-.73-.403-1.008a1.32 1.32 0 00-.983-.43c-.39 0-.726.16-.997.443a1.412 1.412 0 00-.416.995v8.003c0 .389.137.73.416 1.004.275.27.611.407.997.407.385 0 .721-.137.987-.411.27-.274.398-.615.398-1v-2.835h3.671v2.835c0 .389.137.725.408 1zm4.79-9.998c-.261.279-.416.61-.416.995v7.99c0 .384.137.726.407 1 .27.274.611.41.992.41.385 0 .721-.136.992-.41.27-.27.407-.602.407-.987v-8.003c0-.39-.133-.73-.403-1.009a1.322 1.322 0 00-.983-.429c-.39 0-.726.16-.996.443z"/><path d="M94.425 24.957H35.78l57.574-11.13a1.577 1.577 0 001.248-1.847l-1.74-8.984a1.576 1.576 0 00-1.846-1.248l-16.499 3.19a1.52 1.52 0 00-.103.019l-49.875 9.64-.016.003-7.247 1.401a1.576 1.576 0 00-1.248 1.847l1.711 8.836v50.023c0 .87.706 1.576 1.576 1.576H49.4a1.576 1.576 0 100-3.151H20.89v-37.87h71.96v37.87H63.587a1.576 1.576 0 100 3.151h30.838c.87 0 1.575-.705 1.575-1.576V26.533c0-.87-.706-1.576-1.575-1.576zM69.17 34.11l4.505-6.001h8.766l-4.505 6.001H69.17zm-12.708 0l4.502-6.001h8.77L65.23 34.11h-8.767zm-12.711 0l4.506-6.001h8.767l-4.502 6.001h-8.771zm-12.707 0l4.506-6.001h8.766l-4.505 6.001h-8.767zM20.89 26.533a1.613 1.613 0 013.225 0 1.613 1.613 0 01-3.225 0zM36.947 15.41l6.301 4.895-8.366 1.617-6.299-4.895 8.364-1.617zm12.476-2.412l6.301 4.895-8.362 1.617-6.302-4.895 8.363-1.617zm12.476-2.411l6.3 4.894-8.361 1.617-6.301-4.894 8.362-1.617zm12.48-2.412l6.297 4.894-8.363 1.617-6.3-4.894 8.366-1.617zm16.83 2.858l-6.42 1.241-6.297-4.894 11.577-2.24 1.14 5.891zM24.47 17.82l6.3 4.897-4.525.874a4.756 4.756 0 00-6.122-1.179l-.7-3.616 5.047-.976zm-3.579 13.193a4.741 4.741 0 001.613.281 4.771 4.771 0 004.494-3.185h4.612l-4.505 6.001H20.89v-3.097zm60.987 3.097l4.505-6.001h6.466v6.001H81.878z"/><path d="M86.49 54.04c.87 0 1.576-.704 1.576-1.575V46.02c0-.87-.706-1.576-1.576-1.576H26.364c-.87 0-1.576.706-1.576 1.576v6.445c0 .87.706 1.575 1.576 1.575H86.49zm-1.575-3.15h-17.53v-3.295h17.53v3.294zm-20.681 0H46.018v-3.295h18.216v3.294zM27.94 47.594h14.926v3.294H27.94v-3.294zm28.611 27.538h-.026a1.575 1.575 0 100 3.151h.026a1.576 1.576 0 100-3.151z"/></g><defs><clipPath id="clip0"><path fill="#fff" transform="translate(16)" d="M0 0h80v80H0z"/></clipPath></defs></svg>