<svg width="126" height="110" fill="none" xmlns="http://www.w3.org/2000/svg"><path d="M19.043 109h-3.808l-2.548-6.636c-.224-.616-.57-1.045-1.037-1.288-.466-.243-1.073-.364-1.82-.364H6.22V109H2.635V89.064h8.54c2.258 0 3.975.495 5.151 1.484 1.177.99 1.764 2.408 1.764 4.256 0 1.325-.354 2.455-1.064 3.388-.69.915-1.68 1.568-2.967 1.96 1.176.243 2.025 1.064 2.548 2.464L19.043 109zM10.67 97.912c1.362 0 2.37-.252 3.024-.756.653-.504.98-1.27.98-2.296 0-1.008-.327-1.755-.98-2.24-.635-.504-1.643-.756-3.024-.756H6.163v6.048h4.508zm17.784 11.312c-1.438 0-2.707-.299-3.808-.896a6.25 6.25 0 01-2.52-2.548c-.579-1.12-.868-2.427-.868-3.92 0-1.493.289-2.79.868-3.892a6.209 6.209 0 012.52-2.576c1.101-.597 2.37-.896 3.808-.896 1.418 0 2.669.299 3.752.896a6.037 6.037 0 012.492 2.576c.597 1.101.896 2.399.896 3.892 0 1.493-.299 2.8-.896 3.92a6.075 6.075 0 01-2.492 2.548c-1.083.597-2.334.896-3.752.896zm-.028-2.744c1.194 0 2.1-.383 2.716-1.148.634-.784.952-1.941.952-3.472 0-1.512-.318-2.66-.952-3.444-.635-.803-1.531-1.204-2.688-1.204-1.176 0-2.082.401-2.716 1.204-.635.784-.952 1.932-.952 3.444 0 1.531.308 2.688.924 3.472.634.765 1.54 1.148 2.716 1.148zM55.3 94.496c1.605 0 2.8.485 3.584 1.456.784.952 1.176 2.408 1.176 4.368V109h-3.5v-8.568c0-1.12-.187-1.923-.56-2.408-.355-.504-.952-.756-1.792-.756-.97 0-1.736.345-2.296 1.036-.541.672-.812 1.605-.812 2.8V109h-3.5v-8.568c0-1.101-.196-1.904-.588-2.408-.373-.504-.97-.756-1.792-.756-.97 0-1.736.345-2.296 1.036-.56.672-.84 1.605-.84 2.8V109h-3.472V98.864c0-1.493-.075-2.828-.224-4.004h3.276l.252 2.24c.41-.84.999-1.484 1.764-1.932.784-.448 1.68-.672 2.688-.672 2.165 0 3.575.896 4.228 2.688a4.814 4.814 0 011.904-1.96c.84-.485 1.773-.728 2.8-.728zm22.02.364V109h-3.444v-2.268a4.634 4.634 0 01-1.848 1.848c-.803.429-1.718.644-2.744.644-1.232 0-2.324-.299-3.276-.896s-1.69-1.447-2.212-2.548c-.523-1.101-.784-2.38-.784-3.836s.26-2.744.784-3.864c.54-1.139 1.288-2.016 2.24-2.632.952-.635 2.034-.952 3.248-.952 1.026 0 1.94.224 2.744.672a4.454 4.454 0 011.848 1.82V94.86h3.444zm-7.084 11.62c1.157 0 2.053-.401 2.688-1.204.634-.803.952-1.932.952-3.388 0-1.493-.318-2.641-.952-3.444-.635-.803-1.54-1.204-2.716-1.204-1.158 0-2.063.42-2.716 1.26-.635.821-.952 1.969-.952 3.444 0 1.456.317 2.576.952 3.36.653.784 1.568 1.176 2.744 1.176zm18.988-11.984c3.378 0 5.068 1.941 5.068 5.824V109h-3.5v-8.512c0-1.12-.215-1.932-.645-2.436-.429-.523-1.091-.784-1.987-.784-1.064 0-1.923.345-2.576 1.036-.654.672-.98 1.568-.98 2.688V109h-3.473V98.864c0-1.493-.074-2.828-.224-4.004h3.276l.252 2.324a5.145 5.145 0 011.96-1.988c.84-.467 1.783-.7 2.829-.7zm15.191 14.728c-1.475 0-2.754-.299-3.836-.896a6.11 6.11 0 01-2.492-2.52c-.58-1.101-.868-2.389-.868-3.864s.298-2.772.896-3.892a6.523 6.523 0 012.576-2.604c1.12-.635 2.408-.952 3.864-.952 1.008 0 1.978.159 2.912.476.952.317 1.708.756 2.268 1.316l-.98 2.464a6.539 6.539 0 00-1.904-1.092 5.46 5.46 0 00-1.988-.392c-1.27 0-2.259.401-2.968 1.204-.71.784-1.064 1.923-1.064 3.416 0 1.493.345 2.632 1.036 3.416.709.784 1.708 1.176 2.996 1.176.653 0 1.316-.131 1.988-.392a7.095 7.095 0 001.904-1.12l.98 2.464c-.598.56-1.372.999-2.324 1.316a9.422 9.422 0 01-2.996.476zm20.046-7.112h-9.744c.074 1.512.448 2.632 1.12 3.36.69.709 1.708 1.064 3.052 1.064 1.549 0 2.986-.504 4.312-1.512l1.008 2.408c-.672.541-1.503.98-2.492 1.316a9.505 9.505 0 01-2.968.476c-2.315 0-4.135-.653-5.46-1.96-1.326-1.307-1.988-3.099-1.988-5.376 0-1.437.289-2.716.868-3.836.578-1.12 1.39-1.988 2.436-2.604 1.045-.635 2.23-.952 3.556-.952 1.941 0 3.472.635 4.592 1.904 1.138 1.25 1.708 2.977 1.708 5.18v.532zm-6.216-5.096c-.934 0-1.699.28-2.296.84-.579.541-.952 1.335-1.12 2.38h6.58c-.112-1.064-.439-1.867-.98-2.408-.523-.541-1.251-.812-2.184-.812z" fill="#fff"/><g clip-path="url(#clip0)" fill="#fff"><path d="M102.246 32.261c0-5.762-2.19-11.165-6.165-15.214-3.998-4.07-9.36-6.313-15.098-6.313A21.474 21.474 0 0063 20.424a21.474 21.474 0 00-17.983-9.69c-5.738 0-11.1 2.243-15.098 6.313-3.975 4.05-6.165 9.452-6.165 15.215 0 5.4 1.563 8.557 2.82 11.094l.136.276c5.2 10.535 34.274 34.7 35.51 35.723l.778.645.78-.643c.03-.025 2.772-2.287 6.677-5.675a267.097 267.097 0 006.564 5.672l.778.646.78-.644c.764-.63 18.746-15.5 21.823-21.994l.086-.18c.742-1.562 1.76-3.702 1.76-6.957 0-2.825-.827-5.498-2.393-7.782 1.052-2.256 2.393-5.51 2.393-10.181zm-3.97 23.87l-.087.184C95.684 61.6 81.325 73.858 77.8 76.817a279.255 279.255 0 01-6.516-5.676c-4.278-3.849-7.71-7.2-10.133-9.882a48.924 48.924 0 01-1.784-2.077 30.454 30.454 0 01-.578-.738c-.628-.83-1.094-1.55-1.389-2.147l-.05-.103c-.715-1.446-1.525-3.085-1.525-5.969 0-6.268 4.827-11.177 10.99-11.177 4.166 0 7.96 2.294 9.9 5.986l1.083 2.06 1.083-2.06a11.157 11.157 0 019.9-5.986c3.431 0 6.597 1.557 8.687 4.272 1.524 1.98 2.33 4.368 2.33 6.905 0 2.703-.81 4.405-1.523 5.907zm-.17-15.767l-.017-.015a13.56 13.56 0 00-.413-.383l-.073-.065a13.504 13.504 0 00-.966-.773l-.041-.028c-.148-.107-.299-.21-.451-.31l-.07-.047a13.027 13.027 0 00-1.061-.62l-.06-.031a12.17 12.17 0 00-.486-.24l-.063-.03a12.898 12.898 0 00-1.14-.461l-.076-.026c-.172-.06-.345-.116-.52-.168l-.051-.016a13.17 13.17 0 00-.548-.148l-.107-.027a13.015 13.015 0 00-.548-.12l-.093-.017a13.48 13.48 0 00-.555-.094l-.031-.005c-.191-.028-.383-.05-.576-.07l-.11-.01a13.614 13.614 0 00-.566-.041l-.105-.005A13.589 13.589 0 0077.8 42.16a13.59 13.59 0 00-10.983-5.56c-.681 0-1.354.05-2.014.148a13.215 13.215 0 00-7.535 3.852c-2.507 2.56-3.888 5.978-3.888 9.625 0 3.456.986 5.45 1.778 7.053l.05.102c.047.095.097.191.15.29l.053.096.115.206.072.121.115.193c.027.045.057.09.086.136l.12.19c.03.048.064.098.097.147.041.063.083.126.127.19.034.052.071.104.107.156l.135.194.118.164.144.197.127.172.152.202.138.179a44.71 44.71 0 00.477.603 40.865 40.865 0 00.69.83l.175.205a52.564 52.564 0 00.382.44l.206.233a89.696 89.696 0 00.611.68 56.89 56.89 0 00.437.473l.233.25.222.236.24.253.233.244.25.26.241.249.264.27.245.25.283.285.245.246.3.3a120.416 120.416 0 00.799.787l.283.276.299.29c.099.096.2.194.302.29l.297.286c.103.1.209.2.314.3l.305.29.318.3c.106.1.211.2.319.3.108.103.22.206.33.31l.321.3.347.322a130.61 130.61 0 001.017.935l.36.329.215.196a424.385 424.385 0 01-5.62 4.787c-4.739-3.981-29.584-25.122-34.099-34.27l-.138-.278c-1.202-2.428-2.565-5.18-2.565-10.009 0-10.699 8.265-19.08 18.816-19.08a19.046 19.046 0 0116.9 10.218L63 25.46l1.083-2.06a19.046 19.046 0 0116.9-10.219c10.551 0 18.816 8.381 18.816 19.08 0 3.517-.835 6.1-1.694 8.103zM46.113 0h-2.447v7.618h2.447V0zm9.347 2.222l-3.2 6.914 2.221 1.027L57.68 3.25l-2.22-1.028zm-21.141-.001l-2.221 1.027 3.198 6.914 2.22-1.027-3.197-6.914z"/><path d="M31.424 33.597c0-.114 0-.23.003-.344l-2.446-.05c-.003.13-.004.262-.004.394 0 1.641.166 3.137.51 4.572l2.38-.57c-.299-1.246-.443-2.555-.443-4.002zm3.316-13.449c-2.932 2.755-4.896 6.48-5.531 10.488l2.416.383c.551-3.475 2.252-6.702 4.79-9.088l-1.676-1.783zm28.956 21.545c-3.364 1.56-5.565 4.873-5.742 8.644l2.444.115c.134-2.858 1.793-5.363 4.327-6.539l-1.03-2.22z"/></g><defs><clipPath id="clip0"><path fill="#fff" transform="translate(23)" d="M0 0h80v80H0z"/></clipPath></defs></svg>